<svg xmlns="http://www.w3.org/2000/svg" viewBox="0 0 300.87 83.42">
  <defs>
    <style>
      .a, .b, .c {
        fill: #e30613;
      }

      .a, .b {
        stroke: #fff;
        stroke-miterlimit: 10;
      }

      .a {
        stroke-width: 3px;
      }

      .b {
        stroke-width: 6px;
      }
    </style>
  </defs>
  <title>TitleMobile</title>
  <g>
    <g>
      <path class="a" d="M37.56,12.77V22a.83.83,0,0,1-.27.63,1,1,0,0,1-.65.25H26.53V57.1a.85.85,0,0,1-.28.67.91.91,0,0,1-.65.25H14.43a.83.83,0,0,1-.62-.25.9.9,0,0,1-.26-.67V22.84H3.44a.94.94,0,0,1-.67-.25A.85.85,0,0,1,2.52,22V12.77a.91.91,0,0,1,.25-.67.9.9,0,0,1,.67-.25h33.2a.93.93,0,0,1,.65.25A.89.89,0,0,1,37.56,12.77Z" transform="translate(-1.02 -9.66)"/>
      <path class="a" d="M74,12.77V22a.81.81,0,0,1-.28.63,1,1,0,0,1-.64.25H62.91V57.1a.87.87,0,0,1-.27.67A.93.93,0,0,1,62,58H50.82a.85.85,0,0,1-.63-.25.9.9,0,0,1-.25-.67V22.84H39.83a.94.94,0,0,1-.67-.25A.86.86,0,0,1,38.9,22V12.77a.92.92,0,0,1,.26-.67.9.9,0,0,1,.67-.25H73a.91.91,0,0,1,.64.25A.86.86,0,0,1,74,12.77Z" transform="translate(-1.02 -9.66)"/>
      <path class="a" d="M76.21,58a.91.91,0,0,1-.67-.25.9.9,0,0,1-.25-.67V12.77a.86.86,0,0,1,.92-.92h27.11a.91.91,0,0,1,.64.25.86.86,0,0,1,.28.67V22a.88.88,0,0,1-.28.65.9.9,0,0,1-.64.28H88.26v6.55h13a.86.86,0,0,1,.63.26.83.83,0,0,1,.25.62v9.23a.85.85,0,0,1-.88.88h-13V47h15.06a.92.92,0,0,1,.64.26.8.8,0,0,1,.28.62V57.1a.85.85,0,0,1-.28.67.91.91,0,0,1-.64.25Z" transform="translate(-1.02 -9.66)"/>
      <path class="a" d="M137.76,42.05l8.92,7.06a.94.94,0,0,1,.32.6.79.79,0,0,1-.19.65,24.31,24.31,0,0,1-8.33,6.6,24.4,24.4,0,0,1-20,.51A23.59,23.59,0,0,1,105.6,44.63a23.89,23.89,0,0,1,0-18.72,24.26,24.26,0,0,1,5.17-7.69,24.66,24.66,0,0,1,7.74-5.15,24.25,24.25,0,0,1,20,.49,24.17,24.17,0,0,1,8.31,6.55,1,1,0,0,1,.18.7.94.94,0,0,1-.32.6l-8.91,7a.85.85,0,0,1-.62.2.74.74,0,0,1-.58-.3,13.13,13.13,0,0,0-3.91-2.95,10.25,10.25,0,0,0-4.68-1.16,11,11,0,0,0-11.08,11,11,11,0,0,0,11.08,11,10.43,10.43,0,0,0,4.71-1.16,12.6,12.6,0,0,0,3.92-3,.84.84,0,0,1,1.2-.09Z" transform="translate(-1.02 -9.66)"/>
      <path class="a" d="M196.77,11.85a.85.85,0,0,1,.63.25.91.91,0,0,1,.25.67V22a.93.93,0,0,1-.25.65.84.84,0,0,1-.63.28H181v6.55H194.7a.85.85,0,0,1,.62.26.83.83,0,0,1,.25.62v9.23a.85.85,0,0,1-.87.88H181V57.1a.87.87,0,0,1-.27.67.93.93,0,0,1-.65.25H168.93a.86.86,0,0,1-.92-.92V12.77a.91.91,0,0,1,.25-.67.9.9,0,0,1,.67-.25Z" transform="translate(-1.02 -9.66)"/>
      <path class="a" d="M230.11,42.19q5.41,6.14,5.68,15.6a.91.91,0,0,1-.25.65.85.85,0,0,1-.67.28h-12a.89.89,0,0,1-.88-.88c-.15-3.73-1.1-6.58-2.84-8.57A10.08,10.08,0,0,0,212,46V57.79a.89.89,0,0,1-.27.65.88.88,0,0,1-.65.28H200a.85.85,0,0,1-.67-.28.91.91,0,0,1-.25-.65v-45a.91.91,0,0,1,.25-.67.9.9,0,0,1,.67-.25h21.89a13.75,13.75,0,0,1,5.35,1,12.42,12.42,0,0,1,4.35,3,13.88,13.88,0,0,1,2.95,5.19,23,23,0,0,1,1.06,7.3Q235.56,37.8,230.11,42.19ZM212,23.86v9.83a.37.37,0,0,0,.42.42h5.31a4.46,4.46,0,0,0,3.39-1.46,5.43,5.43,0,0,0,1.36-3.88,5.45,5.45,0,0,0-1.36-3.88,4.46,4.46,0,0,0-3.39-1.45h-5.31A.37.37,0,0,0,212,23.86Z" transform="translate(-1.02 -9.66)"/>
      <path class="a" d="M249.23,58H238.1a.86.86,0,0,1-.92-.92V12.77a.91.91,0,0,1,.25-.67.9.9,0,0,1,.67-.25h11.13a.93.93,0,0,1,.65.25.89.89,0,0,1,.27.67V57.1a.87.87,0,0,1-.27.67A.93.93,0,0,1,249.23,58Z" transform="translate(-1.02 -9.66)"/>
      <path class="a" d="M266.45,13.07a24.53,24.53,0,0,1,19,0,24.71,24.71,0,0,1,7.8,5.15,24.23,24.23,0,0,1,5.22,7.69,23.55,23.55,0,0,1,0,18.72,23.74,23.74,0,0,1-13,12.84,24.84,24.84,0,0,1-26.78-5.12,24.14,24.14,0,0,1-5.22-7.72,23.55,23.55,0,0,1,0-18.72,24.23,24.23,0,0,1,5.22-7.69A24.82,24.82,0,0,1,266.45,13.07Zm1.57,30a11.3,11.3,0,0,0,15.84,0,10.91,10.91,0,0,0,0-15.6,11.3,11.3,0,0,0-15.84,0,10.91,10.91,0,0,0,0,15.6Z" transform="translate(-1.02 -9.66)"/>
    </g>
    <g>
      <g>
        <path class="b" d="M45.46,80.58v2.78a12.49,12.49,0,0,1-4.16.82,7.46,7.46,0,0,1-5.18-1.74,5.91,5.91,0,0,1-1.94-4.61,6,6,0,0,1,2-4.62,7.07,7.07,0,0,1,5-1.82,11.86,11.86,0,0,1,4.14.81v2.88a6.79,6.79,0,0,0-3.15-.82,3.92,3.92,0,0,0-2.77,1,3.37,3.37,0,0,0-1,2.58,3.53,3.53,0,0,0,1,2.63,3.64,3.64,0,0,0,2.67,1A10.63,10.63,0,0,0,45.46,80.58Z" transform="translate(-1.02 -9.66)"/>
        <path class="b" d="M60.6,80.91v2.15A7.34,7.34,0,0,1,57,84.18q-1.83,0-2.16-1.38a7.15,7.15,0,0,1-4,1.38,3.48,3.48,0,0,1-2.44-.91,2.77,2.77,0,0,1-1-2.11,3.4,3.4,0,0,1,1-2.58q1-1,6.27-2.54C54.72,74.67,54,74,52.5,74A6.33,6.33,0,0,0,48,76V72.89a9.9,9.9,0,0,1,5.32-1.5c3.48,0,5.21,1.25,5.21,3.74v5.61c0,.57.21.86.64.86A3.05,3.05,0,0,0,60.6,80.91ZM55.34,65.35,58,70H55.62l-2.08-2.34L51.4,70H49.05l2.64-4.68ZM54.64,81V78A10.7,10.7,0,0,0,52,79.2a1.66,1.66,0,0,0-.72,1.38,1.3,1.3,0,0,0,.36.92,1.18,1.18,0,0,0,.89.39A3.22,3.22,0,0,0,54.64,81Z" transform="translate(-1.02 -9.66)"/>
        <path class="b" d="M66.14,71.65v1.58a6.16,6.16,0,0,1,4.28-1.84A4.5,4.5,0,0,1,74.85,74a6.35,6.35,0,0,1,4.84-2.62,4.79,4.79,0,0,1,3.47,1.29,4.44,4.44,0,0,1,1.34,3.37v7.89H80.64V76.73a3.06,3.06,0,0,0-.6-2A2.06,2.06,0,0,0,78.36,74c-1.13,0-2.14.7-3,2.09v7.87H71.46V76.66a2.82,2.82,0,0,0-.65-2A2.23,2.23,0,0,0,69.1,74a4,4,0,0,0-3,1.71v8.25H62.28V71.65Z" transform="translate(-1.02 -9.66)"/>
        <path class="b" d="M100.3,80.91v2.15a7.37,7.37,0,0,1-3.62,1.12c-1.22,0-1.94-.46-2.17-1.38a7.1,7.1,0,0,1-4,1.38A3.48,3.48,0,0,1,88,83.27a2.74,2.74,0,0,1-1-2.11,3.39,3.39,0,0,1,1-2.58q1-1,6.27-2.54c.09-1.37-.62-2.06-2.13-2.06A6.33,6.33,0,0,0,87.67,76V72.89A9.9,9.9,0,0,1,93,71.39q5.2,0,5.21,3.74v5.61c0,.57.21.86.64.86A3.09,3.09,0,0,0,100.3,80.91Zm-6,0V78a10.77,10.77,0,0,0-2.66,1.22A1.66,1.66,0,0,0,91,80.58a1.3,1.3,0,0,0,.36.92,1.17,1.17,0,0,0,.89.39A3.18,3.18,0,0,0,94.33,81Z" transform="translate(-1.02 -9.66)"/>
        <path class="b" d="M105.87,71.65v3.52h0q1.68-3.78,3.92-3.78a4.61,4.61,0,0,1,2.56,1.12l-1.06,3.43A4.75,4.75,0,0,0,109,75a2.64,2.64,0,0,0-2.25,1.67,8.16,8.16,0,0,0-.92,1.93v5.32H102V71.65Z" transform="translate(-1.02 -9.66)"/>
        <path class="b" d="M126.4,80.91v2.15a7.31,7.31,0,0,1-3.62,1.12c-1.22,0-1.93-.46-2.16-1.38a7.15,7.15,0,0,1-4.05,1.38,3.44,3.44,0,0,1-2.43-.91,2.75,2.75,0,0,1-1-2.11,3.4,3.4,0,0,1,1-2.58q1-1,6.27-2.54c.08-1.37-.63-2.06-2.14-2.06A6.33,6.33,0,0,0,113.77,76V72.89a9.94,9.94,0,0,1,5.33-1.5q5.2,0,5.2,3.74v5.61c0,.57.22.86.64.86A3.05,3.05,0,0,0,126.4,80.91Zm-6,0V78a10.88,10.88,0,0,0-2.67,1.22,1.66,1.66,0,0,0-.72,1.38,1.27,1.27,0,0,0,.37.92,1.15,1.15,0,0,0,.88.39A3.22,3.22,0,0,0,120.44,81Z" transform="translate(-1.02 -9.66)"/>
        <path class="b" d="M136.45,72.3v2.75a8,8,0,0,0-4.1-1.35c-.93,0-1.39.31-1.39,1a.67.67,0,0,0,.29.48,12.82,12.82,0,0,0,2.25,1,6.59,6.59,0,0,1,2.76,1.8,3.78,3.78,0,0,1-.5,5.18,5.77,5.77,0,0,1-3.71,1.05,10.26,10.26,0,0,1-4.4-.9V80.56a10.38,10.38,0,0,0,4,1c1.25,0,1.88-.3,1.88-.91a.91.91,0,0,0-.35-.66,10.93,10.93,0,0,0-2.33-1.09,6.36,6.36,0,0,1-2.7-1.7,3.21,3.21,0,0,1-.73-2.06,3.27,3.27,0,0,1,1.4-2.73,5.92,5.92,0,0,1,3.69-1.06A8.63,8.63,0,0,1,136.45,72.3Z" transform="translate(-1.02 -9.66)"/>
        <path class="b" d="M151.22,71.65H153V74.3h-1.75v9.64h-3.87V74.3h-1.76V71.65h1.76V71A5.52,5.52,0,0,1,148.81,67a5.31,5.31,0,0,1,3.93-1.46,23.12,23.12,0,0,1,2.34.23v3.13a16.65,16.65,0,0,0-1.73-.16,1.89,1.89,0,0,0-2.13,2.15Z" transform="translate(-1.02 -9.66)"/>
        <path class="b" d="M158.81,71.65v3.52h.05c1.12-2.52,2.42-3.78,3.92-3.78a4.64,4.64,0,0,1,2.56,1.12l-1.07,3.43A4.68,4.68,0,0,0,162,75a2.67,2.67,0,0,0-2.26,1.67,8.36,8.36,0,0,0-.91,1.93v5.32h-3.87V71.65Z" transform="translate(-1.02 -9.66)"/>
        <path class="b" d="M166.66,67.66a2.11,2.11,0,0,1,.62-1.52,2.13,2.13,0,0,1,3.63,1.52,2.12,2.12,0,0,1-3.63,1.5A2.08,2.08,0,0,1,166.66,67.66Zm4.07,4V83.94h-3.86V71.65Z" transform="translate(-1.02 -9.66)"/>
        <path class="b" d="M186.54,71.65v2.59h-1.76a4,4,0,0,1,.61,2.05,3.92,3.92,0,0,1-1.06,2.64,4.72,4.72,0,0,1-3.16,1.44,8.14,8.14,0,0,0-2.37.43.61.61,0,0,0-.28.53.59.59,0,0,0,.36.52,11.89,11.89,0,0,0,2.87.42,5.08,5.08,0,0,1,3.49,1.32,3.47,3.47,0,0,1,1,2.36A3.41,3.41,0,0,1,184.55,89a9.11,9.11,0,0,1-4.83,1.06,9.85,9.85,0,0,1-4.9-1,2.94,2.94,0,0,1-1.67-2.59q0-2.25,3.29-3.13c-1-.29-1.49-.83-1.49-1.6s.75-1.52,2.24-1.86a4.28,4.28,0,0,1-2.47-1.3,3.54,3.54,0,0,1-1-2.49A4.2,4.2,0,0,1,175.15,73a5.62,5.62,0,0,1,4.08-1.36ZM179.9,87.78a3.92,3.92,0,0,0,2-.45,1.29,1.29,0,0,0,.77-1.1c0-.9-1-1.35-3-1.35a4.69,4.69,0,0,0-2.14.4,1.2,1.2,0,0,0-.79,1.06C176.73,87.3,177.79,87.78,179.9,87.78Zm-.32-13.84a2.16,2.16,0,0,0-1.59.65,2.19,2.19,0,0,0-.64,1.59,2.25,2.25,0,0,0,2.23,2.22,2.07,2.07,0,0,0,1.56-.69,2.34,2.34,0,0,0,.65-1.66,2,2,0,0,0-.63-1.49A2.18,2.18,0,0,0,179.58,73.94Z" transform="translate(-1.02 -9.66)"/>
        <path class="b" d="M194.55,71.39a7.36,7.36,0,0,1,4.9,1.7,5.83,5.83,0,0,1,2,4.71,5.74,5.74,0,0,1-2,4.71,7.5,7.5,0,0,1-4.87,1.67,7.17,7.17,0,0,1-5-1.78,6,6,0,0,1-1.95-4.62,5.88,5.88,0,0,1,2-4.64A7.22,7.22,0,0,1,194.55,71.39Zm0,10.5q2.77,0,2.77-4.19,0-4-2.77-4a2.41,2.41,0,0,0-2.08,1,5.22,5.22,0,0,0-.75,3Q191.72,81.89,194.55,81.89Z" transform="translate(-1.02 -9.66)"/>
        <path class="b" d="M208,71.65v3.52h0q1.68-3.78,3.92-3.78a4.66,4.66,0,0,1,2.57,1.12l-1.07,3.43A4.76,4.76,0,0,0,211.2,75a2.64,2.64,0,0,0-2.26,1.67,8.65,8.65,0,0,0-.92,1.93v5.32h-3.87V71.65Z" transform="translate(-1.02 -9.66)"/>
        <path class="b" d="M222.28,65.92l-4.4,3.9h-2l2-3.9ZM220,71.65V83.94h-3.87V71.65Z" transform="translate(-1.02 -9.66)"/>
        <path class="b" d="M227.66,71.65h1.75V74.3h-1.75v9.64h-3.87V74.3H222V71.65h1.76V71A5.48,5.48,0,0,1,225.25,67a5.31,5.31,0,0,1,3.93-1.46,23.12,23.12,0,0,1,2.34.23v3.13a16.65,16.65,0,0,0-1.73-.16,1.89,1.89,0,0,0-2.13,2.15Z" transform="translate(-1.02 -9.66)"/>
        <path class="b" d="M231.15,67.66a2.13,2.13,0,0,1,3.63-1.52,2.11,2.11,0,0,1,.62,1.52,2.08,2.08,0,0,1-.62,1.5,2.13,2.13,0,0,1-3.63-1.5Zm4.07,4V83.94h-3.87V71.65Z" transform="translate(-1.02 -9.66)"/>
        <path class="b" d="M249.24,80.58v2.78a12.44,12.44,0,0,1-4.15.82,7.46,7.46,0,0,1-5.18-1.74A5.87,5.87,0,0,1,238,77.83a6,6,0,0,1,2-4.62,7,7,0,0,1,5-1.82,12,12,0,0,1,4.14.81v2.88a6.85,6.85,0,0,0-3.15-.82,3.92,3.92,0,0,0-2.77,1,3.33,3.33,0,0,0-1,2.58,3.5,3.5,0,0,0,1,2.63,3.64,3.64,0,0,0,2.67,1A10.53,10.53,0,0,0,249.24,80.58Z" transform="translate(-1.02 -9.66)"/>
        <path class="b" d="M264.38,80.91v2.15a7.31,7.31,0,0,1-3.61,1.12c-1.22,0-1.94-.46-2.17-1.38a7.1,7.1,0,0,1-4.05,1.38,3.48,3.48,0,0,1-2.43-.91,2.74,2.74,0,0,1-1-2.11,3.39,3.39,0,0,1,1-2.58q1-1,6.27-2.54c.09-1.37-.62-2.06-2.13-2.06A6.33,6.33,0,0,0,251.76,76V72.89a9.9,9.9,0,0,1,5.32-1.5q5.21,0,5.21,3.74v5.61c0,.57.21.86.64.86A3,3,0,0,0,264.38,80.91Zm-6,0V78a10.77,10.77,0,0,0-2.66,1.22,1.66,1.66,0,0,0-.72,1.38,1.3,1.3,0,0,0,.36.92,1.17,1.17,0,0,0,.89.39A3.18,3.18,0,0,0,258.42,81Z" transform="translate(-1.02 -9.66)"/>
        <path class="b" d="M274.44,72.3v2.75a8,8,0,0,0-4.11-1.35c-.92,0-1.39.31-1.39,1a.67.67,0,0,0,.29.48,13.24,13.24,0,0,0,2.25,1,6.59,6.59,0,0,1,2.76,1.8,3.5,3.5,0,0,1,.81,2.23,3.58,3.58,0,0,1-1.3,2.95A5.8,5.8,0,0,1,270,84.18a10.33,10.33,0,0,1-4.4-.9V80.56a10.42,10.42,0,0,0,4,1c1.25,0,1.87-.3,1.87-.91a.91.91,0,0,0-.35-.66,10.73,10.73,0,0,0-2.32-1.09,6.34,6.34,0,0,1-2.71-1.7,3.32,3.32,0,0,1,.67-4.79,6,6,0,0,1,3.69-1.06A8.67,8.67,0,0,1,274.44,72.3Z" transform="translate(-1.02 -9.66)"/>
      </g>
      <g>
        <path class="c" d="M45.46,80.58v2.78a12.49,12.49,0,0,1-4.16.82,7.46,7.46,0,0,1-5.18-1.74,5.91,5.91,0,0,1-1.94-4.61,6,6,0,0,1,2-4.62,7.07,7.07,0,0,1,5-1.82,11.86,11.86,0,0,1,4.14.81v2.88a6.79,6.79,0,0,0-3.15-.82,3.92,3.92,0,0,0-2.77,1,3.37,3.37,0,0,0-1,2.58,3.53,3.53,0,0,0,1,2.63,3.64,3.64,0,0,0,2.67,1A10.63,10.63,0,0,0,45.46,80.58Z" transform="translate(-1.02 -9.66)"/>
        <path class="c" d="M60.6,80.91v2.15A7.34,7.34,0,0,1,57,84.18q-1.83,0-2.16-1.38a7.15,7.15,0,0,1-4,1.38,3.48,3.48,0,0,1-2.44-.91,2.77,2.77,0,0,1-1-2.11,3.4,3.4,0,0,1,1-2.58q1-1,6.27-2.54C54.72,74.67,54,74,52.5,74A6.33,6.33,0,0,0,48,76V72.89a9.9,9.9,0,0,1,5.32-1.5c3.48,0,5.21,1.25,5.21,3.74v5.61c0,.57.21.86.64.86A3.05,3.05,0,0,0,60.6,80.91ZM55.34,65.35,58,70H55.62l-2.08-2.34L51.4,70H49.05l2.64-4.68ZM54.64,81V78A10.7,10.7,0,0,0,52,79.2a1.66,1.66,0,0,0-.72,1.38,1.3,1.3,0,0,0,.36.92,1.18,1.18,0,0,0,.89.39A3.22,3.22,0,0,0,54.64,81Z" transform="translate(-1.02 -9.66)"/>
        <path class="c" d="M66.14,71.65v1.58a6.16,6.16,0,0,1,4.28-1.84A4.5,4.5,0,0,1,74.85,74a6.35,6.35,0,0,1,4.84-2.62,4.79,4.79,0,0,1,3.47,1.29,4.44,4.44,0,0,1,1.34,3.37v7.89H80.64V76.73a3.06,3.06,0,0,0-.6-2A2.06,2.06,0,0,0,78.36,74c-1.13,0-2.14.7-3,2.09v7.87H71.46V76.66a2.82,2.82,0,0,0-.65-2A2.23,2.23,0,0,0,69.1,74a4,4,0,0,0-3,1.71v8.25H62.28V71.65Z" transform="translate(-1.02 -9.66)"/>
        <path class="c" d="M100.3,80.91v2.15a7.37,7.37,0,0,1-3.62,1.12c-1.22,0-1.94-.46-2.17-1.38a7.1,7.1,0,0,1-4,1.38A3.48,3.48,0,0,1,88,83.27a2.74,2.74,0,0,1-1-2.11,3.39,3.39,0,0,1,1-2.58q1-1,6.27-2.54c.09-1.37-.62-2.06-2.13-2.06A6.33,6.33,0,0,0,87.67,76V72.89A9.9,9.9,0,0,1,93,71.39q5.2,0,5.21,3.74v5.61c0,.57.21.86.64.86A3.09,3.09,0,0,0,100.3,80.91Zm-6,0V78a10.77,10.77,0,0,0-2.66,1.22A1.66,1.66,0,0,0,91,80.58a1.3,1.3,0,0,0,.36.92,1.17,1.17,0,0,0,.89.39A3.18,3.18,0,0,0,94.33,81Z" transform="translate(-1.02 -9.66)"/>
        <path class="c" d="M105.87,71.65v3.52h0q1.68-3.78,3.92-3.78a4.61,4.61,0,0,1,2.56,1.12l-1.06,3.43A4.75,4.75,0,0,0,109,75a2.64,2.64,0,0,0-2.25,1.67,8.16,8.16,0,0,0-.92,1.93v5.32H102V71.65Z" transform="translate(-1.02 -9.66)"/>
        <path class="c" d="M126.4,80.91v2.15a7.31,7.31,0,0,1-3.62,1.12c-1.22,0-1.93-.46-2.16-1.38a7.15,7.15,0,0,1-4.05,1.38,3.44,3.44,0,0,1-2.43-.91,2.75,2.75,0,0,1-1-2.11,3.4,3.4,0,0,1,1-2.58q1-1,6.27-2.54c.08-1.37-.63-2.06-2.14-2.06A6.33,6.33,0,0,0,113.77,76V72.89a9.94,9.94,0,0,1,5.33-1.5q5.2,0,5.2,3.74v5.61c0,.57.22.86.64.86A3.05,3.05,0,0,0,126.4,80.91Zm-6,0V78a10.88,10.88,0,0,0-2.67,1.22,1.66,1.66,0,0,0-.72,1.38,1.27,1.27,0,0,0,.37.92,1.15,1.15,0,0,0,.88.39A3.22,3.22,0,0,0,120.44,81Z" transform="translate(-1.02 -9.66)"/>
        <path class="c" d="M136.45,72.3v2.75a8,8,0,0,0-4.1-1.35c-.93,0-1.39.31-1.39,1a.67.67,0,0,0,.29.48,12.82,12.82,0,0,0,2.25,1,6.59,6.59,0,0,1,2.76,1.8,3.78,3.78,0,0,1-.5,5.18,5.77,5.77,0,0,1-3.71,1.05,10.26,10.26,0,0,1-4.4-.9V80.56a10.38,10.38,0,0,0,4,1c1.25,0,1.88-.3,1.88-.91a.91.91,0,0,0-.35-.66,10.93,10.93,0,0,0-2.33-1.09,6.36,6.36,0,0,1-2.7-1.7,3.21,3.21,0,0,1-.73-2.06,3.27,3.27,0,0,1,1.4-2.73,5.92,5.92,0,0,1,3.69-1.06A8.63,8.63,0,0,1,136.45,72.3Z" transform="translate(-1.02 -9.66)"/>
        <path class="c" d="M151.22,71.65H153V74.3h-1.75v9.64h-3.87V74.3h-1.76V71.65h1.76V71A5.52,5.52,0,0,1,148.81,67a5.31,5.31,0,0,1,3.93-1.46,23.12,23.12,0,0,1,2.34.23v3.13a16.65,16.65,0,0,0-1.73-.16,1.89,1.89,0,0,0-2.13,2.15Z" transform="translate(-1.02 -9.66)"/>
        <path class="c" d="M158.81,71.65v3.52h.05c1.12-2.52,2.42-3.78,3.92-3.78a4.64,4.64,0,0,1,2.56,1.12l-1.07,3.43A4.68,4.68,0,0,0,162,75a2.67,2.67,0,0,0-2.26,1.67,8.36,8.36,0,0,0-.91,1.93v5.32h-3.87V71.65Z" transform="translate(-1.02 -9.66)"/>
        <path class="c" d="M166.66,67.66a2.11,2.11,0,0,1,.62-1.52,2.13,2.13,0,0,1,3.63,1.52,2.12,2.12,0,0,1-3.63,1.5A2.08,2.08,0,0,1,166.66,67.66Zm4.07,4V83.94h-3.86V71.65Z" transform="translate(-1.02 -9.66)"/>
        <path class="c" d="M186.54,71.65v2.59h-1.76a4,4,0,0,1,.61,2.05,3.92,3.92,0,0,1-1.06,2.64,4.72,4.72,0,0,1-3.16,1.44,8.14,8.14,0,0,0-2.37.43.61.61,0,0,0-.28.53.59.59,0,0,0,.36.52,11.89,11.89,0,0,0,2.87.42,5.08,5.08,0,0,1,3.49,1.32,3.47,3.47,0,0,1,1,2.36A3.41,3.41,0,0,1,184.55,89a9.11,9.11,0,0,1-4.83,1.06,9.85,9.85,0,0,1-4.9-1,2.94,2.94,0,0,1-1.67-2.59q0-2.25,3.29-3.13c-1-.29-1.49-.83-1.49-1.6s.75-1.52,2.24-1.86a4.28,4.28,0,0,1-2.47-1.3,3.54,3.54,0,0,1-1-2.49A4.2,4.2,0,0,1,175.15,73a5.62,5.62,0,0,1,4.08-1.36ZM179.9,87.78a3.92,3.92,0,0,0,2-.45,1.29,1.29,0,0,0,.77-1.1c0-.9-1-1.35-3-1.35a4.69,4.69,0,0,0-2.14.4,1.2,1.2,0,0,0-.79,1.06C176.73,87.3,177.79,87.78,179.9,87.78Zm-.32-13.84a2.16,2.16,0,0,0-1.59.65,2.19,2.19,0,0,0-.64,1.59,2.25,2.25,0,0,0,2.23,2.22,2.07,2.07,0,0,0,1.56-.69,2.34,2.34,0,0,0,.65-1.66,2,2,0,0,0-.63-1.49A2.18,2.18,0,0,0,179.58,73.94Z" transform="translate(-1.02 -9.66)"/>
        <path class="c" d="M194.55,71.39a7.36,7.36,0,0,1,4.9,1.7,5.83,5.83,0,0,1,2,4.71,5.74,5.74,0,0,1-2,4.71,7.5,7.5,0,0,1-4.87,1.67,7.17,7.17,0,0,1-5-1.78,6,6,0,0,1-1.95-4.62,5.88,5.88,0,0,1,2-4.64A7.22,7.22,0,0,1,194.55,71.39Zm0,10.5q2.77,0,2.77-4.19,0-4-2.77-4a2.41,2.41,0,0,0-2.08,1,5.22,5.22,0,0,0-.75,3Q191.72,81.89,194.55,81.89Z" transform="translate(-1.02 -9.66)"/>
        <path class="c" d="M208,71.65v3.52h0q1.68-3.78,3.92-3.78a4.66,4.66,0,0,1,2.57,1.12l-1.07,3.43A4.76,4.76,0,0,0,211.2,75a2.64,2.64,0,0,0-2.26,1.67,8.65,8.65,0,0,0-.92,1.93v5.32h-3.87V71.65Z" transform="translate(-1.02 -9.66)"/>
        <path class="c" d="M222.28,65.92l-4.4,3.9h-2l2-3.9ZM220,71.65V83.94h-3.87V71.65Z" transform="translate(-1.02 -9.66)"/>
        <path class="c" d="M227.66,71.65h1.75V74.3h-1.75v9.64h-3.87V74.3H222V71.65h1.76V71A5.48,5.48,0,0,1,225.25,67a5.31,5.31,0,0,1,3.93-1.46,23.12,23.12,0,0,1,2.34.23v3.13a16.65,16.65,0,0,0-1.73-.16,1.89,1.89,0,0,0-2.13,2.15Z" transform="translate(-1.02 -9.66)"/>
        <path class="c" d="M231.15,67.66a2.13,2.13,0,0,1,3.63-1.52,2.11,2.11,0,0,1,.62,1.52,2.08,2.08,0,0,1-.62,1.5,2.13,2.13,0,0,1-3.63-1.5Zm4.07,4V83.94h-3.87V71.65Z" transform="translate(-1.02 -9.66)"/>
        <path class="c" d="M249.24,80.58v2.78a12.44,12.44,0,0,1-4.15.82,7.46,7.46,0,0,1-5.18-1.74A5.87,5.87,0,0,1,238,77.83a6,6,0,0,1,2-4.62,7,7,0,0,1,5-1.82,12,12,0,0,1,4.14.81v2.88a6.85,6.85,0,0,0-3.15-.82,3.92,3.92,0,0,0-2.77,1,3.33,3.33,0,0,0-1,2.58,3.5,3.5,0,0,0,1,2.63,3.64,3.64,0,0,0,2.67,1A10.53,10.53,0,0,0,249.24,80.58Z" transform="translate(-1.02 -9.66)"/>
        <path class="c" d="M264.38,80.91v2.15a7.31,7.31,0,0,1-3.61,1.12c-1.22,0-1.94-.46-2.17-1.38a7.1,7.1,0,0,1-4.05,1.38,3.48,3.48,0,0,1-2.43-.91,2.74,2.74,0,0,1-1-2.11,3.39,3.39,0,0,1,1-2.58q1-1,6.27-2.54c.09-1.37-.62-2.06-2.13-2.06A6.33,6.33,0,0,0,251.76,76V72.89a9.9,9.9,0,0,1,5.32-1.5q5.21,0,5.21,3.74v5.61c0,.57.21.86.64.86A3,3,0,0,0,264.38,80.91Zm-6,0V78a10.77,10.77,0,0,0-2.66,1.22,1.66,1.66,0,0,0-.72,1.38,1.3,1.3,0,0,0,.36.92,1.17,1.17,0,0,0,.89.39A3.18,3.18,0,0,0,258.42,81Z" transform="translate(-1.02 -9.66)"/>
        <path class="c" d="M274.44,72.3v2.75a8,8,0,0,0-4.11-1.35c-.92,0-1.39.31-1.39,1a.67.67,0,0,0,.29.48,13.24,13.24,0,0,0,2.25,1,6.59,6.59,0,0,1,2.76,1.8,3.5,3.5,0,0,1,.81,2.23,3.58,3.58,0,0,1-1.3,2.95A5.8,5.8,0,0,1,270,84.18a10.33,10.33,0,0,1-4.4-.9V80.56a10.42,10.42,0,0,0,4,1c1.25,0,1.87-.3,1.87-.91a.91.91,0,0,0-.35-.66,10.73,10.73,0,0,0-2.32-1.09,6.34,6.34,0,0,1-2.71-1.7,3.32,3.32,0,0,1,.67-4.79,6,6,0,0,1,3.69-1.06A8.67,8.67,0,0,1,274.44,72.3Z" transform="translate(-1.02 -9.66)"/>
      </g>
    </g>
  </g>
</svg>
